HIERARCHY
ROOT Hips
{
	OFFSET 0.00000 0.00000 0.00000
	CHANNELS 6 Xposition Yposition Zposition Zrotation Yrotation Xrotation 
	JOINT LHipJoint
	{
		OFFSET 0 0 0
		CHANNELS 3 Zrotation Yrotation Xrotation
		JOINT LeftHip
		{
			OFFSET 1.80322 -1.53100 0.99595
			CHANNELS 3 Zrotation Yrotation Xrotation
			JOINT LeftKnee
			{
				OFFSET 2.25177 -6.18669 0.00000
				CHANNELS 3 Zrotation Yrotation Xrotation
				JOINT LeftAnkle
				{
					OFFSET 2.26601 -6.22582 0.00000
					CHANNELS 3 Zrotation Yrotation Xrotation
					JOINT LeftToe
					{
						OFFSET 0.23701 -0.65119 2.15848
						CHANNELS 3 Zrotation Yrotation Xrotation
						End Site
						{
							OFFSET 0.00000 -0.00000 1.12949
						}
					}
				}
			}
		}
	}
	JOINT RHipJoint
	{
		OFFSET 0 0 0
		CHANNELS 3 Zrotation Yrotation Xrotation
		JOINT RightHip
		{
			OFFSET -1.93977 -1.53100 0.99595
			CHANNELS 3 Zrotation Yrotation Xrotation
			JOINT RightKnee
			{
				OFFSET -2.28036 -6.26523 0.00000
				CHANNELS 3 Zrotation Yrotation Xrotation
				JOINT RightAnkle
				{
					OFFSET -2.25490 -6.19528 0.00000
					CHANNELS 3 Zrotation Yrotation Xrotation
					JOINT RightToe
					{
						OFFSET -0.28375 -0.77960 2.23137
						CHANNELS 3 Zrotation Yrotation Xrotation
						End Site
						{
							OFFSET -0.00000 -0.00000 1.17899
						}
					}
				}
			}
		}
	}
	JOINT lowerback
	{
		OFFSET 0 0 0
		CHANNELS 3 Zrotation Yrotation Xrotation
		JOINT Chest
		{
			OFFSET -0.00088 2.12090 -0.02806
			CHANNELS 3 Zrotation Yrotation Xrotation
			JOINT Chest2
			{
				OFFSET -0.00286 2.09666 0.12974
				CHANNELS 3 Zrotation Yrotation Xrotation
				JOINT lowerneck
				{
					OFFSET 0 0 0
					CHANNELS 3 Zrotation Yrotation Xrotation
					JOINT Neck
					{
						OFFSET 0.07328 1.83526 0.07290
						CHANNELS 3 Zrotation Yrotation Xrotation
						JOINT Head
						{
							OFFSET -0.06683 1.74974 -0.49542
							CHANNELS 3 Zrotation Yrotation Xrotation
							End Site
							{
								OFFSET -0.03398 1.85163 -0.17573
							}
						}
					}
				}
				JOINT LeftCollar
				{
					OFFSET 0 0 0
					CHANNELS 3 Zrotation Yrotation Xrotation
					JOINT LeftShoulder
					{
						OFFSET 3.02113 1.18018 0.40602
CHANNELS 3 Zrotation Xrotation Yrotation
						JOINT LeftElbow
						{
OFFSET 0 -4.585380 -0.000000
CHANNELS 3 Zrotation Xrotation Yrotation
							JOINT LeftWrist
							{
OFFSET 0 -2.689350 -0.000000
CHANNELS 3 Zrotation Xrotation Yrotation
								JOINT lhand
								{
									OFFSET 0 0 0
CHANNELS 3 Zrotation Xrotation Yrotation
									JOINT LFingers
									{
OFFSET 0 -0.585060 -0.000000
CHANNELS 3 Zrotation Xrotation Yrotation
										End Site
										{
OFFSET 0 -0.471690 -0.000000
										}
									}
								}
								JOINT LThumb
								{
OFFSET 0 0.000000 0.000000
CHANNELS 3 Zrotation Xrotation Yrotation
									End Site
									{
OFFSET 0 -0.478890 0.478890
									}
								}
							}
						}
					}
				}
				JOINT RightCollar
				{
					OFFSET 0 0 0
					CHANNELS 3 Zrotation Yrotation Xrotation
					JOINT RightShoulder
					{
						OFFSET -2.95074 1.18843 0.31430
CHANNELS 3 Zrotation Xrotation Yrotation
						JOINT RightElbow
						{
OFFSET 0 -4.474500 -0.000000
CHANNELS 3 Zrotation Xrotation Yrotation
							JOINT RightWrist
							{
OFFSET 0 -2.938960 -0.000000
CHANNELS 3 Zrotation Xrotation Yrotation
								JOINT rhand
								{
									OFFSET 0 0 0
CHANNELS 3 Zrotation Xrotation Yrotation
									JOINT RFingers
									{
OFFSET 0 -0.405090 -0.000000
CHANNELS 3 Zrotation Xrotation Yrotation
										End Site
										{
OFFSET 0 -0.326600 -0.000000
										}
									}
								}
								JOINT RThumb
								{
OFFSET 0 0.000000 0.000000
CHANNELS 3 Zrotation Xrotation Yrotation
									End Site
									{
OFFSET 0 -0.331580 0.331580
									}
								}
							}
						}
					}
				}
			}
		}
	}
}
MOTION
Frames: 8
Frame Time: 0.008333333333333333
0.037850 14.772178 9.469569 1.953065 -0.693075 16.389904 0.000000 0.000000 0.000000 -19.618990 -20.271518 -31.058270 7.261496 15.548041 49.856158 2.364536 3.371111 -30.407224 0.088025 -1.912996 -5.265190 0.000000 0.000000 0.000000 16.364060 14.806426 -34.811170 -8.550032 -16.509177 54.520415 -3.061934 -2.217679 -33.949153 -0.060097 1.581191 -4.349591 -0.452049 -0.575208 -1.503190 -0.715366 -0.890823 -12.600807 -0.441555 -0.440623 -12.746978 11.497067 5.123715 -8.304841 -6.570245 7.173641 31.523347 -3.551595 3.815192 12.468197 0.000000 0.000000 0.000000 121.935205 -16.812637 62.005006 18.386918 -28.649379 4.733563 10.208670 -9.122733 -28.131673 0.000000 0.000000 0.000000 -7.125000 0.000000 0.000000 -22.290436 57.069233 6.821845 0.000000 0.000000 0.000000 -124.076639 -22.515693 -68.939793 -18.943555 -29.347977 -5.003352 -30.645063 -17.463850 25.456845 0.000000 0.000000 0.000000 7.125000 0.000000 0.000000 -1.107542 58.933308 0.377232
0.011037 14.597583 9.513177 2.206205 -0.815874 16.627918 0.000000 0.000000 0.000000 -19.379342 -21.073860 -33.331524 8.516013 16.485718 54.400360 2.512186 3.699496 -31.435719 0.223013 -3.038786 -8.386802 0.000000 0.000000 0.000000 16.038056 13.824233 -37.279726 -9.685491 -17.229003 58.431742 -3.354667 -0.853132 -35.037150 -0.087362 1.906350 -5.246921 -0.625494 -0.638676 -1.325074 -0.813450 -1.000425 -12.572853 -0.439381 -0.482281 -12.824157 10.944094 5.012402 -9.188056 -5.910737 6.914645 33.584776 -3.260956 3.717586 13.454889 0.000000 0.000000 0.000000 126.046126 -21.626118 60.954045 23.074948 -34.168998 7.181108 9.474090 -14.638812 -27.687022 0.000000 0.000000 0.000000 -7.125000 0.000000 0.000000 -22.720986 56.509591 6.650350 0.000000 0.000000 0.000000 -128.129476 -27.608956 -65.370097 -23.743764 -34.890338 -7.560200 -29.727223 -21.600083 25.423172 0.000000 0.000000 0.000000 7.125000 0.000000 0.000000 -0.053814 58.674557 0.018035
0.001241 14.436312 9.528338 2.570276 -1.332709 17.160494 0.000000 0.000000 0.000000 -19.170559 -21.636755 -36.096988 9.781782 17.285185 58.756340 2.580621 3.800331 -31.880769 0.426717 -4.192047 -11.617630 0.000000 0.000000 0.000000 15.339732 13.217804 -40.343626 -10.903244 -17.887305 62.466951 -3.522512 0.463136 -35.508663 -0.077852 1.800202 -4.953889 -0.933808 -0.578478 -0.858466 -1.049278 -0.969379 -12.458798 -0.523214 -0.450344 -12.978165 10.722313 4.923562 -9.761078 -5.404768 6.631663 34.576926 -3.071374 3.626765 13.963523 0.000000 0.000000 0.000000 129.433186 -25.055463 58.775886 28.445696 -39.522320 10.406515 11.290290 -17.914298 -26.804095 0.000000 0.000000 0.000000 -7.125000 0.000000 0.000000 -20.329440 56.057827 5.680740 0.000000 0.000000 0.000000 -130.835674 -31.328276 -61.763569 -29.383838 -40.358259 -11.008880 -29.942624 -24.388678 24.746803 0.000000 0.000000 0.000000 7.125000 0.000000 0.000000 -0.502757 57.989287 0.159862
0.009124 14.289883 9.509841 2.788596 -1.953457 17.853344 0.000000 0.000000 0.000000 -18.847847 -22.510509 -38.708946 10.885275 17.878476 62.408363 2.612468 4.595665 -32.420730 0.635873 -5.101949 -14.199648 0.000000 0.000000 0.000000 14.602790 13.345570 -43.444731 -12.082373 -18.425149 66.249516 -3.591059 0.965967 -35.720235 -0.085380 1.885121 -5.188180 -1.221795 -0.534202 -0.070742 -1.175095 -0.956129 -12.219292 -0.494300 -0.420956 -13.180880 10.622669 4.958598 -10.425331 -5.183971 6.553802 34.862504 -2.969794 3.594815 14.221964 0.000000 0.000000 0.000000 132.359676 -28.136594 58.773028 33.732774 -43.885281 13.927656 11.628431 -20.147807 -27.123768 0.000000 0.000000 0.000000 -7.125000 0.000000 0.000000 -20.191981 56.425424 5.822536 0.000000 0.000000 0.000000 -132.466413 -33.866975 -57.891172 -35.330073 -45.045761 -15.046745 -31.015596 -25.652949 23.788326 0.000000 0.000000 0.000000 7.125000 0.000000 0.000000 -1.974289 57.187763 0.589601
0.023073 14.147196 9.464721 2.751166 -2.274847 18.888960 0.000000 0.000000 0.000000 -17.921563 -23.514044 -41.854680 11.954327 18.371175 65.843935 2.633944 5.022649 -32.742371 0.785243 -5.657137 -15.792749 0.000000 0.000000 0.000000 13.832535 14.272256 -46.397931 -13.085081 -18.812587 69.389469 -3.642550 0.999462 -35.972987 -0.107987 2.119000 -5.834667 -1.353564 -0.601806 0.583964 -1.101122 -1.062443 -11.955733 -0.320942 -0.452513 -13.270312 10.370467 4.887630 -11.247501 -5.188333 6.412108 35.051647 -2.941488 3.481724 14.466746 0.000000 0.000000 0.000000 133.746729 -30.649104 57.799087 39.551542 -47.800531 18.106763 13.402925 -20.897877 -27.619886 0.000000 0.000000 0.000000 -7.125000 0.000000 0.000000 -18.706618 57.260165 5.753546 0.000000 0.000000 0.000000 -132.629832 -36.135419 -54.421245 -42.013892 -49.217251 -19.951590 -31.208150 -25.064433 23.350392 0.000000 0.000000 0.000000 7.125000 0.000000 0.000000 -2.292631 56.747672 0.660350
0.042239 14.023203 9.390648 2.751925 -2.098423 20.145897 0.000000 0.000000 0.000000 -16.777375 -24.585482 -45.295737 12.913864 18.750772 68.857850 2.629455 4.892548 -32.655626 0.857217 -5.904533 -16.507544 0.000000 0.000000 0.000000 12.991253 15.156097 -49.367620 -13.910116 -19.086501 71.929727 -3.686400 0.582194 -36.308061 -0.109868 2.137431 -5.885632 -1.358858 -0.741967 1.345105 -1.081792 -1.265293 -11.672505 -0.262615 -0.547339 -13.406999 10.176840 4.738910 -12.118233 -5.037660 6.066721 34.932841 -2.886365 3.305101 14.557559 0.000000 0.000000 0.000000 133.658779 -32.351768 54.567030 45.786779 -51.147308 22.850061 17.143358 -18.898389 -27.726700 0.000000 0.000000 0.000000 -7.125000 0.000000 0.000000 -14.882263 58.168478 4.864537 0.000000 0.000000 0.000000 -131.572252 -37.051296 -50.220571 -48.930160 -52.554027 -25.322473 -32.460943 -23.046956 22.735712 0.000000 0.000000 0.000000 7.125000 0.000000 0.000000 -3.828708 56.349415 1.066153
0.067290 13.912947 9.302761 2.688074 -1.847776 21.492092 0.000000 0.000000 0.000000 -15.564177 -25.169945 -48.805539 13.711000 19.023995 71.319830 2.642170 4.275198 -32.445946 0.850557 -5.881944 -16.442178 0.000000 0.000000 0.000000 12.145747 16.048542 -52.390476 -14.632719 -19.294809 74.127734 -3.679288 0.024434 -36.431231 -0.090361 1.938968 -5.337102 -1.332679 -0.850541 2.001777 -0.980747 -1.409363 -11.362737 -0.138611 -0.611501 -13.445178 9.963610 4.733632 -13.079019 -4.811143 5.913184 34.786468 -2.762514 3.219434 14.675177 0.000000 0.000000 0.000000 132.605640 -33.447546 50.531675 51.434970 -53.557909 27.324464 21.745872 -16.021229 -27.133186 0.000000 0.000000 0.000000 -7.125000 0.000000 0.000000 -9.607627 58.608054 3.215727 0.000000 0.000000 0.000000 -130.632395 -37.383123 -46.614902 -53.277290 -54.234640 -28.812926 -34.333848 -18.364826 21.218609 0.000000 0.000000 0.000000 7.125000 0.000000 0.000000 -6.150757 55.056067 1.523096
0.093739 13.819224 9.204531 2.690181 -1.251758 22.649219 0.000000 0.000000 0.000000 -14.480427 -25.516621 -52.114651 14.394192 19.229224 73.404806 2.642900 3.011121 -31.909568 0.765583 -5.587469 -15.592143 0.000000 0.000000 0.000000 11.405883 16.441522 -55.044962 -15.204543 -19.439469 75.852041 -3.678107 -0.468693 -36.572403 -0.072876 1.741806 -4.792543 -1.331231 -0.986689 2.634099 -0.901906 -1.593972 -11.059596 -0.017934 -0.693505 -13.476663 9.822253 4.618203 -13.909147 -4.621674 5.615948 34.881439 -2.699498 3.084917 14.867690 0.000000 0.000000 0.000000 131.402413 -34.248902 47.046661 55.755582 -55.068422 30.834551 24.575871 -14.918565 -25.786601 0.000000 0.000000 0.000000 -7.125000 0.000000 0.000000 -5.875017 57.863005 1.854178 0.000000 0.000000 0.000000 -129.743886 -37.913964 -44.408769 -55.212038 -54.892869 -30.389367 -35.462157 -15.267046 19.806934 0.000000 0.000000 0.000000 7.125000 0.000000 0.000000 -7.519742 53.678148 1.611626
